<?xml version="1.0" standalone="no"?>
<!DOCTYPE svg PUBLIC "-//W3C//DTD SVG 20010904//EN"
 "http://www.w3.org/TR/2001/REC-SVG-20010904/DTD/svg10.dtd">
<svg version="1.0" xmlns="http://www.w3.org/2000/svg"
 width="48.000000pt" height="48.000000pt" viewBox="0 0 48.000000 48.000000"
 preserveAspectRatio="xMidYMid meet">

<g transform="translate(0.000000,48.000000) scale(0.100000,-0.100000)"
fill="#000000" stroke="none">
<path d="M60 390 l0 -30 180 0 180 0 0 30 0 30 -180 0 -180 0 0 -30z"/>
<path d="M247 293 c-2 -10 -19 -55 -36 -100 l-30 -83 23 0 c14 0 26 7 29 17 2
10 19 55 36 101 l30 82 -23 0 c-14 0 -26 -7 -29 -17z"/>
<path d="M110 245 l-34 -35 36 -37 c32 -31 39 -35 53 -23 14 12 14 15 -6 37
l-22 23 21 23 c17 18 19 26 10 35 -17 17 -20 16 -58 -23z"/>
<path d="M312 268 c-9 -9 -7 -17 10 -35 l21 -23 -22 -23 c-20 -22 -20 -25 -6
-37 14 -12 21 -8 53 23 l36 37 -34 35 c-38 39 -41 40 -58 23z"/>
</g>
</svg>
